<mxfile host="Electron" modified="2023-07-13T20:00:23.324Z" agent="Mozilla/5.0 (Windows NT 10.0; Win64; x64) AppleWebKit/537.36 (KHTML, like Gecko) draw.io/21.6.1 Chrome/112.0.5615.204 Electron/24.6.1 Safari/537.36" etag="EzIR1TOYGLpaVGsCux8X" version="21.6.1" type="device">
  <diagram name="PÃ¡gina-1" id="DGbuRvVizVDaih4u9JT7">
    <mxGraphModel dx="1877" dy="621" grid="1" gridSize="10" guides="1" tooltips="1" connect="1" arrows="1" fold="1" page="1" pageScale="1" pageWidth="827" pageHeight="1169" math="0" shadow="0">
      <root>
        <mxCell id="0" />
        <mxCell id="1" parent="0" />
        <mxCell id="TFs1JCv7ZLmHxF5XMGm0-17" value="" style="rounded=1;whiteSpace=wrap;html=1;fillColor=#cce5ff;strokeColor=#36393d;" vertex="1" parent="1">
          <mxGeometry x="200" y="400" width="470" height="210" as="geometry" />
        </mxCell>
        <mxCell id="TFs1JCv7ZLmHxF5XMGm0-8" value="" style="edgeStyle=orthogonalEdgeStyle;rounded=0;orthogonalLoop=1;jettySize=auto;html=1;" edge="1" parent="1" source="TFs1JCv7ZLmHxF5XMGm0-2" target="TFs1JCv7ZLmHxF5XMGm0-7">
          <mxGeometry relative="1" as="geometry" />
        </mxCell>
        <mxCell id="TFs1JCv7ZLmHxF5XMGm0-2" value="BigQuery" style="rounded=1;whiteSpace=wrap;html=1;fillColor=#dae8fc;strokeColor=#6c8ebf;" vertex="1" parent="1">
          <mxGeometry x="532" y="480" width="120" height="60" as="geometry" />
        </mxCell>
        <mxCell id="TFs1JCv7ZLmHxF5XMGm0-4" value="" style="edgeStyle=orthogonalEdgeStyle;rounded=0;orthogonalLoop=1;jettySize=auto;html=1;" edge="1" parent="1" source="TFs1JCv7ZLmHxF5XMGm0-3" target="TFs1JCv7ZLmHxF5XMGm0-2">
          <mxGeometry relative="1" as="geometry" />
        </mxCell>
        <mxCell id="TFs1JCv7ZLmHxF5XMGm0-3" value="Cloud Storage" style="rounded=1;whiteSpace=wrap;html=1;fillColor=#dae8fc;strokeColor=#6c8ebf;" vertex="1" parent="1">
          <mxGeometry x="374" y="480" width="120" height="60" as="geometry" />
        </mxCell>
        <mxCell id="TFs1JCv7ZLmHxF5XMGm0-6" value="" style="edgeStyle=orthogonalEdgeStyle;rounded=0;orthogonalLoop=1;jettySize=auto;html=1;" edge="1" parent="1" source="TFs1JCv7ZLmHxF5XMGm0-5" target="TFs1JCv7ZLmHxF5XMGm0-3">
          <mxGeometry relative="1" as="geometry" />
        </mxCell>
        <mxCell id="TFs1JCv7ZLmHxF5XMGm0-5" value="Cloud Functions" style="rounded=1;whiteSpace=wrap;html=1;fillColor=#dae8fc;strokeColor=#6c8ebf;" vertex="1" parent="1">
          <mxGeometry x="216" y="480" width="120" height="60" as="geometry" />
        </mxCell>
        <mxCell id="TFs1JCv7ZLmHxF5XMGm0-7" value="Google Sheets" style="whiteSpace=wrap;html=1;fillColor=#d5e8d4;strokeColor=#82b366;rounded=1;" vertex="1" parent="1">
          <mxGeometry x="690" y="480" width="120" height="60" as="geometry" />
        </mxCell>
        <mxCell id="TFs1JCv7ZLmHxF5XMGm0-15" style="edgeStyle=orthogonalEdgeStyle;rounded=0;orthogonalLoop=1;jettySize=auto;html=1;entryX=0;entryY=0.5;entryDx=0;entryDy=0;" edge="1" parent="1" source="TFs1JCv7ZLmHxF5XMGm0-9" target="TFs1JCv7ZLmHxF5XMGm0-13">
          <mxGeometry relative="1" as="geometry" />
        </mxCell>
        <mxCell id="TFs1JCv7ZLmHxF5XMGm0-9" value="Dev Ambiente&lt;br&gt;&lt;br&gt;Terraform code&lt;br&gt;Python code" style="rounded=1;whiteSpace=wrap;html=1;" vertex="1" parent="1">
          <mxGeometry x="-180" y="480" width="120" height="60" as="geometry" />
        </mxCell>
        <mxCell id="TFs1JCv7ZLmHxF5XMGm0-14" style="edgeStyle=orthogonalEdgeStyle;rounded=0;orthogonalLoop=1;jettySize=auto;html=1;entryX=0;entryY=0.5;entryDx=0;entryDy=0;" edge="1" parent="1" source="TFs1JCv7ZLmHxF5XMGm0-13" target="TFs1JCv7ZLmHxF5XMGm0-5">
          <mxGeometry relative="1" as="geometry" />
        </mxCell>
        <mxCell id="TFs1JCv7ZLmHxF5XMGm0-13" value="Git hub&amp;nbsp;" style="rounded=1;whiteSpace=wrap;html=1;fillColor=#647687;fontColor=#ffffff;strokeColor=#314354;" vertex="1" parent="1">
          <mxGeometry y="480" width="120" height="60" as="geometry" />
        </mxCell>
        <mxCell id="TFs1JCv7ZLmHxF5XMGm0-18" value="Google cloud&amp;nbsp;" style="text;html=1;align=center;verticalAlign=middle;resizable=0;points=[];autosize=1;strokeColor=none;fillColor=none;" vertex="1" parent="1">
          <mxGeometry x="374" y="400" width="100" height="30" as="geometry" />
        </mxCell>
        <mxCell id="TFs1JCv7ZLmHxF5XMGm0-19" value="CI/CD" style="text;html=1;strokeColor=none;fillColor=none;align=center;verticalAlign=middle;whiteSpace=wrap;rounded=0;" vertex="1" parent="1">
          <mxGeometry x="120" y="480" width="60" height="30" as="geometry" />
        </mxCell>
      </root>
    </mxGraphModel>
  </diagram>
</mxfile>
